<svg width="139" height="32" viewBox="0 0 139 32" fill="none" xmlns="http://www.w3.org/2000/svg">
<path d="M24.8455 13.5217C24.8455 15.2195 24.551 16.7826 23.9621 18.2112C23.3935 19.619 22.6015 20.8406 21.5862 21.8758C20.5708 22.8903 19.3625 23.6874 17.9614 24.2671C16.5602 24.8261 15.0371 25.1056 13.3923 25.1056C11.7474 25.1056 10.2244 24.8261 8.82318 24.2671C7.4423 23.6874 6.24418 22.8903 5.22882 21.8758C4.21347 20.8406 3.4215 19.619 2.8529 18.2112C2.2843 16.7826 2 15.2195 2 13.5217C2 11.8033 2.2843 10.2402 2.8529 8.8323C3.4215 7.40373 4.21347 6.19255 5.22882 5.19876C6.24418 4.18426 7.4423 3.39751 8.82318 2.83851C10.2244 2.2795 11.7474 2 13.3923 2C15.0371 2 16.5602 2.2795 17.9614 2.83851C19.3625 3.39751 20.5708 4.18426 21.5862 5.19876C22.6015 6.19255 23.3935 7.40373 23.9621 8.8323C24.551 10.2402 24.8455 11.8033 24.8455 13.5217ZM21.5862 13.5217C21.5862 12.3209 21.3933 11.1925 21.0074 10.1366C20.6216 9.06004 20.0733 8.11801 19.3625 7.31056C18.6518 6.5031 17.7887 5.87163 16.7734 5.41615C15.7783 4.93996 14.6513 4.70186 13.3923 4.70186C12.1535 4.70186 11.0265 4.93996 10.0111 5.41615C9.01609 5.87163 8.1632 6.5031 7.45245 7.31056C6.76201 8.11801 6.22387 9.06004 5.83804 10.1366C5.4522 11.1925 5.25928 12.3209 5.25928 13.5217C5.25928 14.7433 5.4522 15.8923 5.83804 16.9689C6.22387 18.0455 6.77216 18.9876 7.48291 19.795C8.19366 20.5818 9.04655 21.2029 10.0416 21.6584C11.0366 22.1139 12.1535 22.3416 13.3923 22.3416C14.631 22.3416 15.758 22.1139 16.7734 21.6584C17.7887 21.2029 18.6518 20.5818 19.3625 19.795C20.0733 18.9876 20.6216 18.0455 21.0074 16.9689C21.3933 15.8923 21.5862 14.7433 21.5862 13.5217Z" fill="white"/>
<path d="M29.6775 32H26.8142V9.82609H29.6166V12.1242H29.708C30.175 11.3375 30.8553 10.6957 31.7488 10.1988C32.6626 9.68116 33.7186 9.42236 34.9167 9.42236C35.993 9.42236 36.9677 9.61905 37.8409 10.0124C38.7345 10.4058 39.496 10.9545 40.1255 11.6584C40.7753 12.3623 41.2728 13.1905 41.6181 14.1429C41.9633 15.0745 42.1359 16.0787 42.1359 17.1553C42.1359 18.2319 41.9633 19.2464 41.6181 20.1988C41.2728 21.1511 40.7855 21.9793 40.156 22.6832C39.5264 23.3872 38.7649 23.9462 37.8714 24.3602C36.9779 24.7536 35.9727 24.9503 34.8558 24.9503C33.8201 24.9503 32.8454 24.7226 31.9316 24.2671C31.0178 23.8116 30.2969 23.1698 29.7689 22.3416H29.6775V32ZM39.1812 17.1553C39.1812 16.472 39.0797 15.8095 38.8766 15.1677C38.6735 14.5259 38.3689 13.9565 37.9628 13.4596C37.5566 12.9627 37.049 12.5694 36.4398 12.2795C35.8509 11.9896 35.1604 11.8447 34.3684 11.8447C33.6374 11.8447 32.9672 11.9896 32.358 12.2795C31.7691 12.5694 31.2615 12.9627 30.835 13.4596C30.4086 13.9565 30.0735 14.5259 29.8298 15.1677C29.6064 15.8095 29.4947 16.4824 29.4947 17.1863C29.4947 17.8903 29.6064 18.5631 29.8298 19.205C30.0735 19.8468 30.4086 20.4161 30.835 20.913C31.2615 21.3892 31.7691 21.7723 32.358 22.0621C32.9672 22.352 33.6374 22.4969 34.3684 22.4969C35.1604 22.4969 35.8509 22.352 36.4398 22.0621C37.049 21.7516 37.5566 21.3478 37.9628 20.8509C38.3689 20.354 38.6735 19.7847 38.8766 19.1429C39.0797 18.501 39.1812 17.8385 39.1812 17.1553Z" fill="white"/>
<path d="M54.7097 15.882C54.6894 15.3023 54.5879 14.764 54.4051 14.2671C54.2426 13.7495 53.9888 13.3043 53.6436 12.9317C53.3187 12.559 52.9024 12.2692 52.3947 12.0621C51.9073 11.8344 51.3286 11.7205 50.6584 11.7205C50.0492 11.7205 49.4705 11.8344 48.9222 12.0621C48.3942 12.2692 47.9271 12.559 47.521 12.9317C47.1352 13.3043 46.8102 13.7495 46.5463 14.2671C46.3026 14.764 46.1604 15.3023 46.1198 15.882H54.7097ZM57.6035 17.0621C57.6035 17.2277 57.6035 17.3934 57.6035 17.559C57.6035 17.7246 57.5933 17.8903 57.573 18.0559H46.1198C46.1401 18.677 46.2721 19.2671 46.5158 19.8261C46.7798 20.3644 47.125 20.8406 47.5515 21.2547C47.9779 21.648 48.4653 21.9586 49.0136 22.1863C49.5822 22.4141 50.1812 22.528 50.8107 22.528C51.7855 22.528 52.6282 22.3106 53.339 21.8758C54.0497 21.441 54.6082 20.913 55.0143 20.2919L57.0247 21.9379C56.253 22.9731 55.3392 23.7391 54.2832 24.236C53.2476 24.7122 52.0901 24.9503 50.8107 24.9503C49.7142 24.9503 48.6988 24.764 47.7647 24.3913C46.8306 24.0186 46.0284 23.501 45.3583 22.8385C44.6882 22.1553 44.1602 21.3375 43.7743 20.3851C43.3885 19.4327 43.1956 18.3768 43.1956 17.2174C43.1956 16.0787 43.3784 15.0331 43.7439 14.0807C44.1297 13.1077 44.6577 12.2795 45.3278 11.5963C45.998 10.913 46.7899 10.3851 47.7038 10.0124C48.6176 9.61905 49.6025 9.42236 50.6584 9.42236C51.7144 9.42236 52.6688 9.59834 53.5217 9.95031C54.3949 10.3023 55.126 10.8095 55.7149 11.472C56.3241 12.1346 56.7912 12.942 57.1161 13.8944C57.441 14.8261 57.6035 15.882 57.6035 17.0621Z" fill="white"/>
<path d="M62.2104 9.82609C62.251 10.1988 62.2815 10.6232 62.3018 11.0994C62.3221 11.5549 62.3322 11.9379 62.3322 12.2484H62.4236C62.6064 11.8551 62.8501 11.4928 63.1547 11.1615C63.4796 10.8095 63.8451 10.5093 64.2512 10.2609C64.6574 9.99172 65.1041 9.78468 65.5915 9.63975C66.0789 9.49482 66.5866 9.42236 67.1145 9.42236C68.0487 9.42236 68.8508 9.58799 69.5209 9.91925C70.1911 10.2298 70.7495 10.6542 71.1963 11.1925C71.643 11.7308 71.9679 12.3623 72.171 13.087C72.3944 13.8116 72.5061 14.588 72.5061 15.4161V24.5466H69.6428V16.3789C69.6428 15.7785 69.592 15.2091 69.4905 14.6708C69.4092 14.1325 69.2468 13.6563 69.0031 13.2422C68.7594 12.8282 68.4243 12.4969 67.9979 12.2484C67.5715 12 67.0232 11.8758 66.353 11.8758C65.2158 11.8758 64.2817 12.3209 63.5506 13.2112C62.8399 14.0807 62.4845 15.2505 62.4845 16.7205V24.5466H59.6212V12.9938C59.6212 12.6004 59.6111 12.0932 59.5908 11.472C59.5705 10.8509 59.54 10.3023 59.4994 9.82609H62.2104Z" fill="white"/>
<path d="M77.9595 24.5466H75.7663V2.55901H82.1021C83.1581 2.55901 84.1328 2.66253 85.0263 2.86956C85.9401 3.0766 86.722 3.41822 87.3718 3.89441C88.0419 4.3499 88.5598 4.95031 88.9253 5.69565C89.2908 6.44099 89.4736 7.35197 89.4736 8.42857C89.4736 9.23602 89.3314 9.97101 89.0471 10.6335C88.7628 11.2961 88.377 11.8758 87.8896 12.3727C87.4022 12.8489 86.8235 13.2319 86.1534 13.5217C85.4832 13.8116 84.7522 13.9979 83.9602 14.0807L90.2655 24.5466H87.585L81.6147 14.2671H77.9595V24.5466ZM77.9595 12.3416H81.767C83.5338 12.3416 84.8943 12.0207 85.8488 11.3789C86.8032 10.7164 87.2804 9.73292 87.2804 8.42857C87.2804 7.70393 87.1484 7.09317 86.8844 6.59627C86.6204 6.09938 86.2549 5.69565 85.7878 5.38509C85.3208 5.07453 84.7522 4.84679 84.082 4.70186C83.4119 4.55694 82.6707 4.48447 81.8584 4.48447H77.9595V12.3416Z" fill="white"/>
<path d="M100.528 15.1677C100.528 13.9048 100.203 12.9627 99.5534 12.3416C98.9036 11.7205 97.9593 11.4099 96.7206 11.4099C95.8677 11.4099 95.0757 11.5652 94.3447 11.8758C93.6136 12.1863 92.9942 12.6004 92.4866 13.118L91.3291 11.7205C91.918 11.1201 92.6896 10.6232 93.6441 10.2298C94.6188 9.83644 95.7154 9.63975 96.9338 9.63975C97.7055 9.63975 98.4264 9.75362 99.0965 9.98137C99.7666 10.1884 100.356 10.5093 100.863 10.9441C101.371 11.3789 101.767 11.9275 102.051 12.5901C102.335 13.2526 102.478 14.029 102.478 14.9193V21.2857C102.478 21.8447 102.498 22.4244 102.539 23.0248C102.579 23.6253 102.64 24.1325 102.721 24.5466H100.863C100.802 24.1946 100.752 23.8116 100.711 23.3975C100.67 22.9834 100.65 22.5797 100.65 22.1863H100.589C99.9393 23.1594 99.198 23.8634 98.3655 24.2981C97.5532 24.7122 96.5683 24.9193 95.4108 24.9193C94.8625 24.9193 94.2939 24.8364 93.705 24.6708C93.1364 24.5259 92.6084 24.2774 92.121 23.9255C91.654 23.5735 91.258 23.118 90.9331 22.559C90.6285 22 90.4762 21.3168 90.4762 20.5093C90.4762 19.3913 90.7503 18.5114 91.2986 17.8696C91.8672 17.207 92.6186 16.7205 93.5527 16.4099C94.4868 16.0787 95.5529 15.8716 96.751 15.7888C97.9695 15.6853 99.2285 15.6335 100.528 15.6335V15.1677ZM99.9189 17.2795C99.066 17.2795 98.203 17.3209 97.3298 17.4037C96.4769 17.4658 95.6951 17.6108 94.9843 17.8385C94.2939 18.0455 93.7253 18.3561 93.2785 18.7702C92.8318 19.1843 92.6084 19.7329 92.6084 20.4161C92.6084 20.9337 92.6998 21.3685 92.8825 21.7205C93.0856 22.0725 93.3496 22.3623 93.6745 22.5901C93.9994 22.7971 94.3548 22.9524 94.7406 23.0559C95.1468 23.1387 95.5529 23.1801 95.9591 23.1801C96.6901 23.1801 97.3399 23.0559 97.9085 22.8075C98.4771 22.5383 98.9544 22.1863 99.3402 21.7516C99.726 21.2961 100.02 20.7785 100.224 20.1988C100.427 19.619 100.528 19.0083 100.528 18.3665V17.2795H99.9189Z" fill="white"/>
<path d="M107.936 24.5466H105.864V10.0124H107.936V24.5466ZM108.362 4.42236C108.362 4.85714 108.21 5.21946 107.905 5.50932C107.6 5.77847 107.265 5.91304 106.9 5.91304C106.534 5.91304 106.199 5.77847 105.895 5.50932C105.59 5.21946 105.438 4.85714 105.438 4.42236C105.438 3.98758 105.59 3.63561 105.895 3.36646C106.199 3.0766 106.534 2.93168 106.9 2.93168C107.265 2.93168 107.6 3.0766 107.905 3.36646C108.21 3.63561 108.362 3.98758 108.362 4.42236Z" fill="white"/>
<path d="M119.054 13.4596C118.749 12.8592 118.282 12.3727 117.652 12C117.043 11.6066 116.343 11.4099 115.551 11.4099C115.185 11.4099 114.82 11.4513 114.454 11.5342C114.089 11.617 113.764 11.7516 113.479 11.9379C113.195 12.1242 112.962 12.3623 112.779 12.6522C112.616 12.942 112.535 13.2836 112.535 13.677C112.535 14.3602 112.809 14.8882 113.358 15.2609C113.906 15.6128 114.769 15.913 115.947 16.1615C117.632 16.5135 118.871 17.0311 119.663 17.7143C120.475 18.3768 120.881 19.2774 120.881 20.4161C120.881 21.2443 120.719 21.9482 120.394 22.528C120.089 23.087 119.683 23.5528 119.176 23.9255C118.668 24.2774 118.089 24.5259 117.439 24.6708C116.81 24.8364 116.17 24.9193 115.52 24.9193C114.444 24.9193 113.398 24.6915 112.383 24.236C111.367 23.7805 110.535 23.0663 109.885 22.0932L111.53 20.8509C111.895 21.4928 112.434 22.0311 113.144 22.4658C113.855 22.9006 114.637 23.118 115.49 23.118C115.937 23.118 116.363 23.0766 116.769 22.9938C117.175 22.911 117.531 22.766 117.835 22.559C118.14 22.352 118.384 22.0932 118.566 21.7826C118.749 21.4513 118.84 21.0476 118.84 20.5714C118.84 19.8054 118.475 19.236 117.744 18.8634C117.033 18.47 115.997 18.1077 114.637 17.7764C114.21 17.6729 113.754 17.5487 113.266 17.4037C112.799 17.2381 112.362 17.0104 111.956 16.7205C111.55 16.4099 111.215 16.0269 110.951 15.5714C110.687 15.1159 110.555 14.5466 110.555 13.8634C110.555 13.118 110.697 12.4865 110.982 11.9689C111.266 11.4306 111.642 10.9959 112.109 10.6646C112.596 10.3126 113.144 10.0538 113.754 9.8882C114.363 9.72257 114.992 9.63975 115.642 9.63975C116.637 9.63975 117.602 9.86749 118.536 10.323C119.47 10.7785 120.171 11.4203 120.638 12.2484L119.054 13.4596Z" fill="white"/>
<path d="M133.898 16.1615C133.837 14.795 133.401 13.6667 132.588 12.7764C131.796 11.8654 130.659 11.4099 129.177 11.4099C128.486 11.4099 127.847 11.5445 127.258 11.8137C126.669 12.0621 126.151 12.4141 125.704 12.8696C125.258 13.3043 124.902 13.8116 124.638 14.3913C124.374 14.9503 124.222 15.5404 124.181 16.1615H133.898ZM136 16.8447C136 16.9896 136 17.1449 136 17.3106C136 17.4762 135.99 17.6522 135.97 17.8385H124.151C124.171 18.5631 124.313 19.2464 124.577 19.8882C124.841 20.53 125.207 21.089 125.674 21.5652C126.141 22.0414 126.689 22.4244 127.319 22.7143C127.948 22.9834 128.629 23.118 129.36 23.118C130.436 23.118 131.36 22.8696 132.132 22.3727C132.923 21.8551 133.523 21.265 133.929 20.6025L135.482 21.8447C134.629 22.942 133.685 23.7288 132.649 24.205C131.634 24.6812 130.537 24.9193 129.36 24.9193C128.304 24.9193 127.319 24.7329 126.405 24.3602C125.511 23.9669 124.74 23.4286 124.09 22.7453C123.44 22.0621 122.922 21.2547 122.536 20.323C122.171 19.3913 121.988 18.3768 121.988 17.2795C121.988 16.1822 122.171 15.1677 122.536 14.236C122.902 13.3043 123.41 12.4969 124.059 11.8137C124.709 11.1304 125.471 10.6025 126.344 10.2298C127.217 9.83644 128.161 9.63975 129.177 9.63975C130.294 9.63975 131.279 9.83644 132.132 10.2298C132.984 10.6025 133.695 11.1201 134.264 11.7826C134.832 12.4244 135.259 13.1801 135.543 14.0497C135.848 14.9193 136 15.8509 136 16.8447Z" fill="white"/>
</svg>
